<?xml version="1.0" encoding="utf-8"?>
<!-- Generator: Adobe Illustrator 26.0.2, SVG Export Plug-In . SVG Version: 6.00 Build 0)  -->
<svg version="1.1" id="Layer_1" xmlns="http://www.w3.org/2000/svg" xmlns:xlink="http://www.w3.org/1999/xlink" x="0px" y="0px"
	 viewBox="0 0 375 375" style="enable-background:new 0 0 375 375;" xml:space="preserve">
<style type="text/css">
	.st0{fill:#FEFEFE;}
	.st1{fill:#FFFFFF;}
</style>
<g>
	<path class="st1" d="M85.3,228.4c16.7,29.4,40.6,46.8,73.9,49c46.6,3,85.6-27.7,93.9-73.7c1.4-7.8,4-13.7,10-18.5
		c3.7-3,6.9-6.5,10.9-10.3c3.2,40.9-9.6,75-41.9,99.7c-36.2,27.8-76.3,31.1-116.9,10.7c-34.7-17.5-53.6-47.2-58.7-86.6
		c29.5,5.6,58.5,5.4,87.5,0.2c28.8-5.2,55.9-14.9,81.9-28.1C183.4,200,136.5,218.3,85.3,228.4z"/>
	<path class="st1" d="M248.4,155.8c-4.9-12.3-11.7-22.4-20.6-30.8c-16.9-15.9-36.8-24.8-60.4-25.3c-20.2-0.4-38.3,5.2-54.6,16.8
		c-12.4,8.8-21.8,20.2-28.1,34c-1.6,3.6-3.5,4.6-7.2,3.1c-3.4-1.4-6.9-2.4-10.5-3.5c-2.7-0.8-3.2-2.2-2-4.8
		c7.1-15.2,16.4-28.6,29.4-39.6c13.6-11.5,28.8-19.6,46.1-23.4c35.1-7.8,66.7-0.2,94.7,22.5c11.6,9.4,20.5,21,27.4,34.2
		c1.4,2.6,1.2,4.4-1.1,6.2C257.3,148.6,253.2,152,248.4,155.8z"/>
	<path class="st1" d="M26,178c8.2-7.3,15.9-14.2,24.4-21.8c43.7,17.3,90.7,24.1,140.3,15.8C156.8,194.4,63,197.9,26,178z"/>
	<path class="st1" d="M330.7,94.1c-2.9,2.3-5.9,4.6-8.8,6.9c-7.3,5.9-14.6,11.7-21.8,17.7c-1.9,1.6-3.5,2-5.7,0.8
		c-3.3-1.7-6.8-2.9-10-4.6c-1.1-0.6-2.3-1.8-2.5-2.9c-0.1-0.8,1.1-2.2,2.1-2.7c20.1-10.8,40.3-21.5,60.5-32.1
		c1.1-0.6,3.1-0.9,3.8-0.4c0.8,0.7,1,2.6,0.8,3.8c-3.5,17.9-7.2,35.9-10.8,53.8c-0.6,3.1-2.3,3.6-4.9,2.5c-4.1-1.8-8.4-3.6-12.4-5.6
		c-2.2-1.1-3.6-0.8-5.1,1.1c-2,2.6-4.2,5-6.5,7.3c-0.8,0.8-2.8,1.6-3.5,1.2c-0.9-0.5-1.4-2.3-1.4-3.5c-0.1-2.8,0-5.7,0.4-8.5
		c0.3-1.8,0.9-3.8,2.1-5.2c7.3-8.7,14.9-17.2,22.3-25.7c0.8-0.9,1.5-1.9,2.3-2.9l1.3-1.8c0.2-0.3,0.5-0.8,0.6-1
		c-0.3,0.1-0.8,0.3-1.1,0.5L330.7,94.1z"/>
	<path class="st1" d="M292.2,133.2l-0.1,0.1c-0.6,0.4-1,0.6-1.5,1.1c-9.2,8.2-18.1,16.8-27.8,24.5c-39.7,31.7-84,54.7-132.1,70.8
		c-8.8,3-8.9,3-8.3,12.2c0.4,6.7,1.1,13.4,1.7,20.4c1.7-0.7,2.8-1.1,3.8-1.6c12.7-6.4,25.5-12.4,38-19.2
		c35.3-19.1,68.1-41.6,95.6-71c10.5-11.2,19.8-23.7,29.7-35.6l0,0c0.5-0.7,0.6-1.1,1-1.6C292.2,133.3,292.2,133.2,292.2,133.2z"/>
</g>
</svg>
